# xmcd
#
# Track frame offsets: 
#        150
#        15310
#        30428
#        46475
#        60961
#        93725
#        105103
#        118869
#        133959
#        147658
#        161846
#        177458
#        189323
#        205412
#        218381
#        236864
#        258841
#        274414
#        288008
#        300568
#
# Disc length: 4237 seconds
#
# Revision: 0
# Processed by: cddbd v1.5.2PL0 Copyright (c) Steve Scherf et al.
# Submitted via: ExactAudioCopy v1.0b3
#
DISCID=1f108b14
DTITLE=Various Artist - Summer Dance Hits Vol. 1 - CD 2
DYEAR=1900
DGENRE=
TTITLE0=Lazard - I Am Alive!
TTITLE1=Squeezer - High Heels (Chris and Andrews Radio Cut)
TTITLE2=Tom P. and Andy Rhythm - It's A Rainy Day (Clubraiders Radio Mix
TTITLE2=)
TTITLE3=Groovestylerz - Prove Your Love (2-4 Grooves Radio Mix)
TTITLE4=Marco Demark Feat. Casey Barnes - Tiny Dancer (Deadmau5 Vocal 
TTITLE4=Mix)
TTITLE5=STFU - Thriller 2008 (STFU Edit)
TTITLE6=Alex M. Vs. Marc Van Damme - I Just Died In Your Arms (Radio M
TTITLE6=ix)
TTITLE7=Basslovers United - Get Back (Radio Edit)
TTITLE8=Como - In My Dreams (Sam G Radio Mix)
TTITLE9=DJ Jago and S.E.J. - Surrender (Pulsedriver Vs. Kevax Edit)
TTITLE10=Cc.K - Pinball (Radio Edit)
TTITLE11=King Amir - The Whistle (Radio Edit)
TTITLE12=The Potbelleez - Don't Hold Back (Radio Edit)
TTITLE13=Paris Encore - Hungry Eyes (Original Mix Edit)
TTITLE14=Dee Cee - Walking In The Sky (Thomas Vendelboe Dirty Radio)
TTITLE15=Dirty Impact Feat. MC Chris Antonio - All I Really Want
TTITLE16=Rico Bernasconi - Precious Little Diamond
TTITLE17=Tom Pulse - Turn Me On (Airplay Mix)
TTITLE18=Starkillers - Killer
TTITLE19=Oliver Twizt Feat. MC Roga - Do The Monkey (Beat B More Radio
TTITLE19=Mix)
EXTD=
EXTT0=
EXTT1=
EXTT2=
EXTT3=
EXTT4=
EXTT5=
EXTT6=
EXTT7=
EXTT8=
EXTT9=
EXTT10=
EXTT11=
EXTT12=
EXTT13=
EXTT14=
EXTT15=
EXTT16=
EXTT17=
EXTT18=
EXTT19=
PLAYORDER=
